<svg xmlns="http://www.w3.org/2000/svg" viewBox="0 0 200 200" width="200" height="200">
  <defs>
    <linearGradient id="ra-bg" x1="0%" y1="0%" x2="100%" y2="100%">
      <stop offset="0%" style="stop-color:#059669"/>
      <stop offset="100%" style="stop-color:#10b981"/>
    </linearGradient>
  </defs>
  <rect width="200" height="200" rx="40" fill="url(#ra-bg)"/>
  <!-- Receipt shape -->
  <path d="M65 35 L135 35 L135 150 L130 145 L125 150 L120 145 L115 150 L110 145 L105 150 L100 145 L95 150 L90 145 L85 150 L80 145 L75 150 L70 145 L65 150 Z" fill="white" fill-opacity="0.95" stroke="none"/>
  <!-- Receipt lines -->
  <line x1="78" y1="55" x2="122" y2="55" stroke="#059669" stroke-width="3" stroke-linecap="round"/>
  <line x1="78" y1="70" x2="110" y2="70" stroke="#059669" stroke-width="2" stroke-linecap="round" opacity="0.5"/>
  <line x1="78" y1="82" x2="118" y2="82" stroke="#059669" stroke-width="2" stroke-linecap="round" opacity="0.5"/>
  <line x1="78" y1="94" x2="105" y2="94" stroke="#059669" stroke-width="2" stroke-linecap="round" opacity="0.5"/>
  <line x1="78" y1="110" x2="122" y2="110" stroke="#059669" stroke-width="3" stroke-linecap="round"/>
  <line x1="78" y1="125" x2="100" y2="125" stroke="#059669" stroke-width="2" stroke-linecap="round" opacity="0.5"/>
  <line x1="108" y1="125" x2="122" y2="125" stroke="#059669" stroke-width="2" stroke-linecap="round" opacity="0.7"/>
  <!-- AI scan effect -->
  <line x1="55" y1="90" x2="145" y2="90" stroke="#fbbf24" stroke-width="3" stroke-dasharray="6,4" opacity="0.9"/>
  <circle cx="55" cy="90" r="5" fill="#fbbf24" opacity="0.8"/>
  <circle cx="145" cy="90" r="5" fill="#fbbf24" opacity="0.8"/>
  <!-- Text -->
  <text x="100" y="180" text-anchor="middle" font-family="Arial, sans-serif" font-size="13" font-weight="bold" fill="white" letter-spacing="1.5">RECEIPT AI</text>
</svg>
